#!OML:ASF F:\VICON\USERDATA\INSTALL\rory3\rory3.ASF
:FULLY-SPECIFIED
:DEGREES
2334
root -0.00190266 15.24 -2.4391 4.01713 -3.87873 1.33062
lowerback 32.5426 0.904506 -1.55328
upperback 11.8055 0.581311 -0.528585
thorax -4.30947 0.242011 0.106828
lowerneck -8.32515 -4.23195 -11.7449
upperneck -3.72829 -4.6211 8.88341
head 0.725033 -2.1098 4.42619
rclavicle -4.7817e-015 3.63714e-015
rhumerus -1.24834 -38.8905 2.20885
rradius 51.742
rwrist -30.4457
rhand 5.35451 13.6059
rfingers 7.12502
rthumb 30.7081 -13.8508
lclavicle -4.7817e-015 3.63714e-015
lhumerus 4.72564 31.7011 0.226001
lradius 62.3688
lwrist 61.9242
lhand 4.64146 15.6069
lfingers 7.12502
lthumb 30.0279 43.1891
rfemur -33.689 4.22509 14.6612
rtibia 47.7785
rfoot -14.4084 -3.19981
rtoes -11.5575
lfemur -29.9625 4.26187 -15.9422
ltibia 42.4929
lfoot -10.6454 -3.50808
ltoes -11.532
2335
root -0.00727959 15.2393 -2.44274 3.98683 -3.64095 1.21285
lowerback 32.6138 0.915687 -1.61416
upperback 11.8329 0.570892 -0.627016
thorax -4.3083 0.238902 0.0351033
lowerneck -8.308 -4.19676 -11.7751
upperneck -3.80064 -4.57006 8.98677
head 0.699891 -2.08247 4.46644
rclavicle 4.37326e-015 -2.75814e-015
rhumerus -1.02616 -38.72 2.0544
rradius 51.7273
rwrist -30.5924
rhand 5.29211 13.3999
rfingers 7.12502
rthumb 30.6486 -14.068
lclavicle 4.37326e-015 -2.75814e-015
lhumerus 4.78729 31.627 0.300128
lradius 62.2782
lwrist 61.9468
lhand 4.35331 15.6383
lfingers 7.12502
lthumb 29.753 43.27
rfemur -33.5854 4.10716 14.8185
rtibia 47.7308
rfoot -14.4233 -3.24865
rtoes -11.4449
lfemur -29.9686 4.16294 -15.7945
ltibia 42.4441
lfoot -10.6051 -3.59108
ltoes -11.9566
2336
root -0.00868164 15.2442 -2.44245 3.87248 -3.49934 1.40837
lowerback 32.6917 1.01741 -1.92124
upperback 11.8883 0.593032 -0.818434
thorax -4.27791 0.248294 -0.00973553
lowerneck -8.36993 -4.17841 -11.7835
upperneck -3.79808 -4.53747 9.12649
head 0.712013 -2.06317 4.51132
rclavicle 5.46658e-016 -1.04362e-015
rhumerus -0.925264 -38.5741 1.97826
rradius 51.652
rwrist -30.6961
rhand 5.27605 13.4052
rfingers 7.12502
rthumb 30.6332 -14.0655
lclavicle 5.46658e-016 -1.04362e-015
lhumerus 4.85724 31.4717 0.357629
lradius 62.2593
lwrist 62.0802
lhand 4.10734 15.7365
lfingers 7.12502
lthumb 29.5182 43.4099
rfemur -33.3985 3.96609 14.6131
rtibia 47.677
rfoot -14.4464 -3.21831
rtoes -11.2875
lfemur -29.8195 4.06358 -16.0213
ltibia 42.3712
lfoot -10.5883 -3.5748
ltoes -12.353
2337
root -0.0116142 15.2477 -2.44214 3.74367 -3.41358 1.49065
lowerback 32.7994 1.13615 -2.1541
upperback 11.964 0.656933 -0.999299
thorax -4.23739 0.278539 -0.100534
lowerneck -8.37011 -4.18297 -11.7234
upperneck -3.96041 -4.54226 9.22337
head 0.666692 -2.06417 4.53322
rclavicle -9.44227e-015 1.44119e-014
rhumerus -1.01805 -38.3734 1.9909
rradius 51.6407
rwrist -30.9364
rhand 5.33677 13.5274
rfingers 7.12502
rthumb 30.6911 -13.9325
lclavicle -9.44227e-015 1.44119e-014
lhumerus 4.88115 31.3445 0.369293
lradius 62.3271
lwrist 62.1608
lhand 4.24055 15.6993
lfingers 7.12502
lthumb 29.6453 43.3502
rfemur -33.212 3.95269 14.5262
rtibia 47.6231
rfoot -14.4848 -3.23496
rtoes -11.3415
lfemur -29.6585 4.03551 -16.1057
ltibia 42.3122
lfoot -10.5586 -3.65676
ltoes -12.2241
2338
root -0.0164259 15.2496 -2.44525 3.71619 -3.227 1.20539
lowerback 32.9293 1.14888 -2.02057
upperback 11.9901 0.703573 -1.08264
thorax -4.26243 0.306853 -0.288526
lowerneck -8.35081 -4.18337 -11.7098
upperneck -4.11909 -4.53933 9.29416
head 0.618648 -2.06151 4.55526
rclavicle 1.04362e-014 5.46658e-015
rhumerus -1.04839 -38.1792 1.99068
rradius 51.587
rwrist -31.0951
rhand 5.49164 13.6565
rfingers 7.12502
rthumb 30.8388 -13.7756
lclavicle 1.04362e-014 5.46658e-015
lhumerus 4.87116 31.191 0.340411
lradius 62.3787
lwrist 62.1909
lhand 4.39687 15.5905
lfingers 7.12502
lthumb 29.7945 43.2148
rfemur -33.1006 3.98548 14.8491
rtibia 47.5639
rfoot -14.4789 -3.41069
rtoes -11.1311
lfemur -29.6686 4.00327 -15.775
ltibia 42.2908
lfoot -10.4775 -3.77702
ltoes -11.8583
